<svg width="960" height="640" viewBox="0 0 960 640" fill="none" xmlns="http://www.w3.org/2000/svg">
  <rect width="960" height="640" rx="40" fill="#F8FAFC"/>
  <rect x="72" y="76" width="816" height="488" rx="28" fill="#0F172A"/>
  <rect x="112" y="120" width="736" height="72" rx="18" fill="#1E293B"/>
  <text x="148" y="166" fill="#E2E8F0" font-family="Arial, sans-serif" font-size="32" font-weight="700">MiniLedger</text>
  <circle cx="782" cy="156" r="12" fill="#67E8F9"/>
  <circle cx="816" cy="156" r="12" fill="#22C55E"/>
  <rect x="112" y="228" width="220" height="132" rx="18" fill="#E2E8F0"/>
  <text x="140" y="270" fill="#0F172A" font-family="Arial, sans-serif" font-size="20" font-weight="700">Assets</text>
  <text x="140" y="316" fill="#0F172A" font-family="Arial, sans-serif" font-size="34" font-weight="700">$24,800</text>
  <rect x="370" y="228" width="220" height="132" rx="18" fill="#ECFEFF"/>
  <text x="398" y="270" fill="#0F172A" font-family="Arial, sans-serif" font-size="20" font-weight="700">Liabilities</text>
  <text x="398" y="316" fill="#0F172A" font-family="Arial, sans-serif" font-size="34" font-weight="700">$9,250</text>
  <rect x="628" y="228" width="220" height="132" rx="18" fill="#DCFCE7"/>
  <text x="656" y="270" fill="#0F172A" font-family="Arial, sans-serif" font-size="20" font-weight="700">Equity</text>
  <text x="656" y="316" fill="#0F172A" font-family="Arial, sans-serif" font-size="34" font-weight="700">$15,550</text>
  <rect x="112" y="398" width="736" height="112" rx="18" fill="#1E293B"/>
  <rect x="148" y="430" width="176" height="16" rx="8" fill="#67E8F9"/>
  <rect x="148" y="466" width="248" height="16" rx="8" fill="#94A3B8"/>
  <rect x="456" y="430" width="144" height="16" rx="8" fill="#22C55E"/>
  <rect x="456" y="466" width="204" height="16" rx="8" fill="#94A3B8"/>
  <rect x="704" y="430" width="92" height="16" rx="8" fill="#67E8F9"/>
  <rect x="704" y="466" width="112" height="16" rx="8" fill="#94A3B8"/>
</svg>
