<svg width="1200" height="800" viewBox="0 0 1200 800" fill="none" xmlns="http://www.w3.org/2000/svg">
  <rect width="1200" height="800" rx="44" fill="#F8FAFC"/>
  <rect x="72" y="68" width="1056" height="664" rx="34" fill="#0F172A"/>
  <rect x="120" y="116" width="960" height="76" rx="20" fill="#1E293B"/>
  <text x="160" y="164" fill="#F8FAFC" font-family="Arial, sans-serif" font-size="34" font-weight="700">SIE Trainer</text>
  <rect x="844" y="136" width="176" height="36" rx="18" fill="#67E8F9"/>
  <text x="884" y="160" fill="#0F172A" font-family="Arial, sans-serif" font-size="16" font-weight="700">Practice Mode</text>
  <rect x="120" y="232" width="280" height="420" rx="24" fill="#E2E8F0"/>
  <text x="154" y="282" fill="#0F172A" font-family="Arial, sans-serif" font-size="24" font-weight="700">Exam Domains</text>
  <rect x="154" y="320" width="192" height="18" rx="9" fill="#0F172A"/>
  <rect x="154" y="368" width="156" height="18" rx="9" fill="#64748B"/>
  <rect x="154" y="416" width="204" height="18" rx="9" fill="#64748B"/>
  <rect x="154" y="464" width="132" height="18" rx="9" fill="#64748B"/>
  <rect x="154" y="548" width="180" height="56" rx="18" fill="#0F172A"/>
  <text x="196" y="584" fill="#F8FAFC" font-family="Arial, sans-serif" font-size="18" font-weight="700">Score 82%</text>
  <rect x="444" y="232" width="636" height="420" rx="24" fill="#F8FAFC"/>
  <text x="492" y="292" fill="#0F172A" font-family="Arial, sans-serif" font-size="26" font-weight="700">Which investment has priority in liquidation?</text>
  <rect x="492" y="342" width="504" height="64" rx="18" fill="#ECFEFF" stroke="#67E8F9" stroke-width="3"/>
  <text x="526" y="382" fill="#0F172A" font-family="Arial, sans-serif" font-size="20" font-weight="700">A. Secured debt</text>
  <rect x="492" y="430" width="504" height="64" rx="18" fill="#F1F5F9"/>
  <text x="526" y="470" fill="#334155" font-family="Arial, sans-serif" font-size="20" font-weight="700">B. Preferred stock</text>
  <rect x="492" y="518" width="504" height="64" rx="18" fill="#F1F5F9"/>
  <text x="526" y="558" fill="#334155" font-family="Arial, sans-serif" font-size="20" font-weight="700">C. Common stock</text>
  <rect x="492" y="612" width="248" height="8" rx="4" fill="#22C55E"/>
  <rect x="740" y="612" width="256" height="8" rx="4" fill="#CBD5E1"/>
</svg>
